<svg xmlns="http://www.w3.org/2000/svg" version="1.1" xmlns:xlink="http://www.w3.org/1999/xlink" xmlns:svgjs="http://svgjs.dev/svgjs" width="1000" height="1000" viewBox="0 0 1000 1000"><rect width="1000" height="1000" fill="#046380"></rect><g transform="matrix(0.7,0,0,0.7,149.84897959183672,150.19913061224486)"><svg viewBox="0 0 343 343" data-background-color="#046380" preserveAspectRatio="xMidYMid meet" height="999" width="1000" xmlns="http://www.w3.org/2000/svg" xmlns:xlink="http://www.w3.org/1999/xlink"><g id="tight-bounds" transform="matrix(1,0,0,1,0.07400000000001228,0.07400000000001228)"><svg viewBox="0 0 342.8515585177538 342.8515585177538" height="342.8515585177538" width="342.8515585177538"><g><svg></svg></g><g><svg viewBox="0 0 342.8515585177538 342.8515585177538" height="342.8515585177538" width="342.8515585177538"><g><path d="M0 171.426c0-94.676 76.75-171.426 171.426-171.426 94.676 0 171.426 76.75 171.426 171.426 0 94.676-76.75 171.426-171.426 171.426-94.676 0-171.426-76.75-171.426-171.426zM171.426 339.394c92.766 0 167.968-75.202 167.968-167.968 0-92.766-75.202-167.968-167.968-167.969-92.766 0-167.968 75.202-167.969 167.969 0 92.766 75.202 167.968 167.969 167.968z" data-fill-palette-color="tertiary" fill="#ffffff" stroke="transparent"></path><ellipse rx="164.56874808852183" ry="164.56874808852183" cx="171.4257792588769" cy="171.4257792588769" fill="#ffffff" stroke="transparent" stroke-width="0" fill-opacity="1" data-fill-palette-color="tertiary"></ellipse></g><g transform="matrix(1,0,0,1,64.84655864529836,152.2567414021525)"><svg viewBox="0 0 213.15844122715708 38.33807571344879" height="38.33807571344879" width="213.15844122715708"><g><svg viewBox="0 0 213.15844122715708 38.33807571344879" height="38.33807571344879" width="213.15844122715708"><g><svg viewBox="0 0 213.15844122715714 38.338075713448795" height="38.33807571344879" width="213.15844122715708"><g><svg viewBox="0 0 213.15844122715714 38.338075713448795" height="38.338075713448795" width="213.15844122715714"><g id="textblocktransform"><svg viewBox="0 0 213.15844122715714 38.338075713448795" height="38.338075713448795" width="213.15844122715714" id="textblock"><g><svg viewBox="0 0 213.15844122715714 38.338075713448795" height="38.338075713448795" width="213.15844122715714"><g transform="matrix(1,0,0,1,0,0)"><svg width="213.15844122715714" viewBox="1.350000023841858 -35.099998474121094 203.02999877929688 36.519996643066406" height="38.338075713448795" data-palette-color="#046380"><path d="M29-26.8Q29.3-24.65 29.6-20.55L29.6-20.55 29.7-17.95Q29.7-10.7 31.6-5L31.6-5Q31.85-4.2 31.85-2.95L31.85-2.95Q31.85-2.25 31.75-1.05L31.75-1.05Q31.7-0.25 31.15 0.23 30.6 0.7 29.75 0.7L29.75 0.7Q29.65 0.7 29.2 0.6L29.2 0.6Q27.95 0.3 27.3-0.53 26.65-1.35 26.65-2.55L26.65-2.55Q26.65-2.95 26.7-3.15L26.7-3.15Q26.7-3.45 26.7-4L26.7-4Q26.7-4.9 26.6-5.65L26.6-5.65Q26.2-7.6 25.35-10.85L25.35-10.85Q25.05-12.2 24.1-12.2L24.1-12.2Q23.75-12.2 23.3-12.05L23.3-12.05Q21.75-11.6 20.58-11.2 19.4-10.8 18.5-10.55L18.5-10.55 16.1-9.85Q14.05-9.25 12.3-8.9L12.3-8.9Q10.45-8.5 9.6-6.85L9.6-6.85Q8.8-5.35 7.3-2.8L7.3-2.8Q6.35-1.1 4.8-1.1L4.8-1.1Q4.05-1.1 3.33-1.48 2.6-1.85 2.1-2.45L2.1-2.45Q1.35-3.3 1.35-4.1L1.35-4.1Q1.35-4.65 1.65-5.25L1.65-5.25 5.1-12.25Q10.8-23.85 11.9-26.15L11.9-26.15Q15.05-32.25 20.45-34.55L20.45-34.55Q21.6-35.1 22.8-35.1L22.8-35.1Q24.3-35.1 25.58-34.33 26.85-33.55 27.55-32.15L27.55-32.15Q28.55-30.1 29-26.8L29-26.8ZM12.85-14.15Q19.7-15.35 24.5-16.1L24.5-16.1Q24.4-20.9 24.23-23.68 24.05-26.45 23.5-29.25L23.5-29.25Q20.85-28.95 19.5-26.65L19.5-26.65Q17.15-22.95 15-19L15-19Q14.65-18.35 13.7-16.1L13.7-16.1 12.85-14.15ZM63.55-13.05Q63.45-14.95 61.95-15.85L61.95-15.85Q60.75-15.55 60-15.1 59.25-14.65 58.9-14.23 58.55-13.8 57.65-12.6L57.65-12.6Q57.35-12.2 57.02-11.5 56.7-10.8 56.65-10.65L56.65-10.65Q56.5-10.3 56.5-9.9L56.5-9.9Q56.5-9.6 56.62-8.97 56.75-8.35 56.7-8L56.7-8Q56.65-7.25 56.75-5.65L56.75-5.65 56.8-4.1Q56.8-3.4 56.75-3.05L56.75-3.05Q56.65-2.25 56.25-1.65 55.85-1.05 55.15-1.05L55.15-1.05Q54.9-1.05 54.5-1.2L54.5-1.2Q54.15-1.3 53.35-1.55 52.55-1.8 52.1-2.33 51.65-2.85 51.65-3.85L51.65-3.85Q51.65-6.45 51.15-11.65L51.15-11.65Q51.05-12.2 50.95-13.5L50.95-13.5Q50.9-14.05 50.45-14.35 50-14.65 49.35-14.65L49.35-14.65Q48.3-14.65 47.75-14.1L47.75-14.1Q45.45-12.8 44.4-11.15 43.35-9.5 43.35-6.9L43.35-6.9 43.4-5.2Q43.4-3.55 42.55-2.15L42.55-2.15Q42.3-1.7 41.52-1.38 40.75-1.05 40.2-1.15L40.2-1.15Q39.7-1.2 39.17-1.83 38.65-2.45 38.65-2.95L38.65-2.95Q38.5-7.15 38.5-11.3L38.5-11.3Q38.5-15.05 38.6-16.9L38.6-16.9Q38.65-17.85 39.25-18.4 39.85-18.95 40.7-18.95L40.7-18.95Q41.8-18.95 42.65-18.15L42.65-18.15Q43.1-17.3 43.4-16.93 43.7-16.55 44.05-16.55L44.05-16.55Q44.35-16.55 44.75-16.88 45.15-17.2 45.85-17.95L45.85-17.95Q47.5-19.75 49.3-19.75L49.3-19.75Q51.25-19.75 54-17.8L54-17.8Q54.2-17.65 54.55-17.38 54.9-17.1 55.15-17.1L55.15-17.1Q55.5-17.1 56.25-17.9L56.25-17.9Q59.05-20.5 63.35-20.75L63.35-20.75Q64.7-20.8 66.07-19.73 67.45-18.65 67.8-17.15L67.8-17.15Q68.4-14.6 68.65-11.15L68.65-11.15Q68.95-5.95 68.9-3.35L68.9-3.35Q68.85-2.15 68.25-1.48 67.65-0.8 66.7-0.8L66.7-0.8Q65.95-0.8 65.1-1.25L65.1-1.25Q64.75-1.4 64.45-1.8 64.15-2.2 64.15-2.5L64.15-2.5 63.85-7.8Q63.8-8.65 63.75-9.98 63.7-11.3 63.55-13.05L63.55-13.05ZM89.15-2.55Q88.7-2.75 88.25-2.75L88.25-2.75Q87.8-2.75 87.47-2.53 87.15-2.3 86.75-1.85L86.75-1.85Q86.15-1.25 85.5-0.85L85.5-0.85Q84.9-0.5 83.3-0.2L83.3-0.2Q82.6-0.1 82.15-0.1L82.15-0.1Q80.05-0.1 77.77-1.03 75.5-1.95 74.55-3.25L74.55-3.25Q73.55-4.65 73.6-6.25L73.6-6.25Q73.65-8.65 75.6-11.05L75.6-11.05Q77.5-13.35 79.07-14.3 80.65-15.25 83.4-15.5L83.4-15.5Q84-15.5 85.12-15.7 86.25-15.9 86.25-16.25L86.25-16.25Q86.25-16.95 85.62-17.53 85-18.1 83.1-18.1L83.1-18.1Q82.4-18.1 81-18L81-18Q79.6-17.9 79.05-17.9L79.05-17.9Q77.35-17.9 76.6-18.45L76.6-18.45Q76.4-18.55 76.4-19.4L76.4-19.4Q76.4-20.9 77.45-21.3L77.45-21.3Q79.6-22.1 81.9-22.15L81.9-22.15Q84.8-22.15 87.27-20.88 89.75-19.6 90.9-17.7L90.9-17.7Q92.05-15.8 92.4-12.45L92.4-12.45Q92.8-8.7 92.8-2.9L92.8-2.9Q92.8-1.3 92.35-1.05L92.35-1.05Q91.95-0.8 91.6-0.8L91.6-0.8Q91.15-0.8 90.77-1.07 90.4-1.35 89.95-1.85L89.95-1.85Q89.5-2.4 89.15-2.55L89.15-2.55ZM81.25-3.15Q83.6-3.85 85.85-5.4L85.85-5.4Q86.35-5.75 86.75-6.3 87.15-6.85 87.25-7L87.25-7Q87.35-7.15 87.42-7.88 87.5-8.6 87.45-9.05L87.45-9.05Q87.4-9.2 87.27-9.85 87.15-10.5 86.9-11L86.9-11Q86.65-11.4 86.1-11.75 85.55-12.1 85.1-12.05L85.1-12.05Q84.15-12 83.05-11.35 81.95-10.7 81-9.6L81-9.6Q80.05-8.45 79.52-7.28 79-6.1 79-5.1L79-5.1Q79.1-3.75 79.75-3.3L79.75-3.3Q80.1-3.05 80.6-3.05L80.6-3.05Q81-3.05 81.25-3.15L81.25-3.15ZM103.84-2.3Q104.84-3.5 105.29-4.2L105.29-4.2Q105.84-4.95 106.44-4.95L106.44-4.95Q107.04-4.95 107.34-4.2L107.34-4.2Q108.04-2.2 108.04-1.05L108.04-1.05Q108.04-0.55 107.99-0.3L107.99-0.3Q107.79 0.7 106.87 1.1 105.94 1.5 104.69 1.4L104.69 1.4Q104.24 1.4 103.17 1.4 102.09 1.4 101.32 1.1 100.54 0.8 99.94 0.1L99.94 0.1Q98.64-1.45 98.64-2.9L98.64-2.9Q98.64-14.6 98.54-20.5L98.54-20.5 98.49-29.3Q98.49-31.05 98.14-32.5L98.14-32.5Q98.09-32.75 98.09-33.1L98.09-33.1Q98.09-34.95 100.59-34.95L100.59-34.95Q102.24-34.95 103.37-33.88 104.49-32.8 104.39-31.05L104.39-31.05Q104.24-28.4 103.99-23.1L103.99-23.1 103.69-17.1Q103.29-8.6 103.14-4.35L103.14-4.35Q103.09-3.85 103.19-3.25 103.29-2.65 103.34-2.5L103.34-2.5 103.84-2.3ZM120.69-7.8Q120.19-7.5 119.24-7.5L119.24-7.5Q118.89-7.5 118.39-7.55 117.89-7.6 117.54-7.55L117.54-7.55Q117.94-5.9 119.44-4.88 120.94-3.85 122.79-3.85L122.79-3.85Q124.39-3.85 125.64-4.55L125.64-4.55Q127.49-5.5 128.84-6.8L128.84-6.8Q129.79-7.75 130.64-7.75L130.64-7.75Q131.19-7.75 131.59-7.2L131.59-7.2Q131.99-6.55 131.99-5.6L131.99-5.6Q131.99-4.6 131.59-4.05L131.59-4.05Q130.29-2.05 128.22-1.3 126.14-0.55 123.39-0.55L123.39-0.55Q120.54-0.55 117.89-1.8 115.24-3.05 113.37-5.23 111.49-7.4 110.89-10.05L110.89-10.05Q110.49-11.6 110.49-13.1L110.49-13.1Q110.49-15.45 111.82-16.9 113.14-18.35 116.09-19.65L116.09-19.65Q118.79-20.8 121.09-20.8L121.09-20.8Q122.74-20.8 124.29-20.3L124.29-20.3Q129.09-18.8 129.09-16.2L129.09-16.2Q129.09-14.55 127.14-12.2L127.14-12.2Q126.19-11.1 124.89-10.25 123.59-9.4 122.37-8.72 121.14-8.05 120.69-7.8L120.69-7.8ZM122.79-17.05Q122.74-17.3 122.42-17.48 122.09-17.65 122.04-17.7L122.04-17.7Q120.69-17.8 119.29-16.93 117.89-16.05 116.97-14.7 116.04-13.35 116.04-12.1L116.04-12.1 116.09-11.7Q116.14-11.5 116.62-11.2 117.09-10.9 117.19-11L117.19-11Q120.74-13.65 122.54-15.25L122.54-15.25Q122.84-15.55 122.84-16.35L122.84-16.35Q122.84-16.85 122.79-17.05L122.79-17.05ZM142.99-18.85Q142.99-18.55 142.89-18.07 142.79-17.6 142.84-17.45L142.84-17.45Q146.29-18.2 148.69-18.2L148.69-18.2Q152.44-18.2 154.34-14.6L154.34-14.6Q155.89-11.55 155.89-7.85L155.89-7.85Q155.89-6.9 155.69-5.1L155.69-5.1Q155.54-3.9 154.74-3.18 153.94-2.45 152.84-2.45L152.84-2.45Q151.69-2.45 151.21-2.88 150.74-3.3 150.66-3.85 150.59-4.4 150.59-5.6L150.59-5.6 150.54-6.65Q150.44-9.65 150.14-11.85L150.14-11.85Q149.99-12.75 149.46-13.13 148.94-13.5 148.09-13.5L148.09-13.5Q147.29-13.5 146.19-13.25L146.19-13.25Q144.49-12.8 143.91-12.55 143.34-12.3 142.24-11.5L142.24-11.5Q141.89-11.25 141.74-10.5 141.59-9.75 141.59-9.65L141.59-9.65Q140.94-6.45 140.19-2L140.19-2Q140.14-1.8 139.99-1.05 139.84-0.3 139.41 0.03 138.99 0.35 138.19 0.25L138.19 0.25Q135.04-0.15 134.99-2.4L134.99-2.4Q134.94-5.3 135.44-9.25L135.44-9.25Q135.79-12.1 136.09-13.85L136.09-13.85Q136.19-14.65 136.36-15.8 136.54-16.95 136.69-18.45L136.69-18.45Q136.84-19.6 136.99-20.15 137.14-20.7 137.69-21.08 138.24-21.45 139.39-21.45L139.39-21.45Q140.84-21.45 141.79-20.8 142.74-20.15 142.99-18.95L142.99-18.95 142.99-18.85ZM179.84-5.85Q179.94-5 180.59-3.65L180.59-3.65Q180.69-3.4 180.81-3.1 180.94-2.8 181.09-2.4L181.09-2.4Q179.39-1.45 178.39-1.45L178.39-1.45Q177.64-1.45 176.99-1.93 176.34-2.4 175.53-3.45L175.53-3.45Q174.94-4.15 174.53-4.15L174.53-4.15Q174.14-4.15 173.69-3.5L173.69-3.5Q172.69-2 171.21-1.25 169.74-0.5 168.09-0.5L168.09-0.5Q166.24-0.5 164.51-1.38 162.78-2.25 161.84-3.75L161.84-3.75Q160.84-5.3 160.84-8.35L160.84-8.35Q160.84-10.55 161.44-12.8 162.03-15.05 163.14-16.5L163.14-16.5Q164.34-18.15 165.99-19.13 167.64-20.1 169.64-20.1L169.64-20.1Q170.28-20.1 170.64-20.05L170.64-20.05Q170.78-20 171.09-20L171.09-20Q172.24-20 172.24-21.1L172.24-21.1 172.19-21.5Q171.49-27.25 170.94-29.95L170.94-29.95Q170.89-30.2 170.78-30.75 170.69-31.3 170.69-31.65L170.69-31.65Q170.69-32.35 170.99-32.88 171.28-33.4 172.03-33.75L172.03-33.75Q172.34-33.9 172.74-33.9L172.74-33.9Q173.78-33.9 174.94-33.23 176.09-32.55 176.28-31.7L176.28-31.7Q177.03-28.6 177.69-23.65L177.69-23.65 178.59-16.05Q179.39-9.25 179.84-5.85L179.84-5.85ZM166.49-12.1Q165.64-9.65 165.64-7.6L165.64-7.6Q165.64-4.75 167.64-3.4L167.64-3.4Q168.44-3.85 168.91-4.42 169.39-5 170.03-6.1L170.03-6.1 170.59-7.05Q171.74-8.7 172.11-10.75 172.49-12.8 172.59-15.95L172.59-15.95Q172.64-16.4 172.41-16.98 172.19-17.55 171.94-17.6L171.94-17.6Q171.53-17.7 170.59-17.38 169.64-17.05 169.39-16.7L169.39-16.7Q168.24-15.35 167.56-14.35 166.89-13.35 166.49-12.1L166.49-12.1ZM190.38-21Q191.63-20.65 192.16-20.15 192.68-19.65 192.68-18.8L192.68-18.8Q192.68-18.4 192.53-17.75L192.53-17.75Q191.98-15.5 191.93-13.25L191.93-13.25Q191.88-10.7 192.73-8.55L192.73-8.55Q193.03-7.8 193.31-7.48 193.58-7.15 193.98-7.15L193.98-7.15Q194.48-7.15 195.28-8.05L195.28-8.05Q197.13-10.25 198.03-12.45 198.93-14.65 199.13-17L199.13-17Q199.28-18.55 199.63-18.95L199.63-18.95Q199.83-19.15 200.28-19.2 200.73-19.25 201.58-19.25L201.58-19.25Q202.93-19.15 203.46-19 203.98-18.85 204.18-18.5 204.38-18.15 204.38-17.35L204.38-17.35 204.33-15Q204.33-14.25 204.28-12.8L204.28-12.8Q204.13-8.3 204.03-6.1L204.03-6.1Q203.98-4.35 202.98-1.7L202.98-1.7Q202.88-1.55 202.43-1.28 201.98-1 201.63-0.95L201.63-0.95Q201.53-0.95 201.21-1.28 200.88-1.6 200.73-1.85L200.73-1.85Q200.38-2.65 199.93-4L199.93-4 199.53-4.95 199.43-5.25 199.28-5.1 198.48-4.6Q197.88-4.1 197.18-3.8L197.18-3.8Q196.03-3.1 194.43-3.1L194.43-3.1Q192.43-3.1 190.63-4.23 188.83-5.35 187.78-7.3L187.78-7.3Q186.08-10.3 186.08-14.25L186.08-14.25Q186.08-16.25 186.63-19.3L186.63-19.3Q186.73-20.05 187.58-20.6L187.58-20.6Q188.33-21.15 189.33-21.15L189.33-21.15Q189.83-21.15 190.38-21L190.38-21Z" opacity="1" transform="matrix(1,0,0,1,0,0)" fill="#046380" class="wordmark-text-0" data-fill-palette-color="quaternary" id="text-0"></path></svg></g></svg></g></svg></g></svg></g><g></g></svg></g></svg></g></svg></g></svg></g><defs></defs></svg><rect width="342.8515585177538" height="342.8515585177538" fill="none" stroke="none" visibility="hidden"></rect></g></svg></g></svg>